<svg width="116" height="28" viewBox="0 0 116 28" fill="none" xmlns="http://www.w3.org/2000/svg">
<path d="M55.0381 20.3552C55.0381 20.697 55.0381 21.0699 55.0073 21.4428C54.9764 21.8158 54.9147 22.1887 54.7913 22.4994C54.6988 22.8102 54.3286 23.929 52.1998 23.5871H51.9839V27.3163L52.1381 27.3474C52.6935 27.4717 53.2179 27.5338 53.7115 27.5338C54.9456 27.5338 55.9328 27.3474 56.7041 26.9745C57.4754 26.6016 58.0615 26.0732 58.4935 25.4517C58.8945 24.8302 59.203 24.0843 59.3264 23.2764C59.4807 22.4684 59.5424 22.2508 59.5424 21.4118V1.46059H55.0073V20.3552H55.0381Z" fill="#981D20"/>
<path d="M12.8339 12.586C12.8339 13.8291 12.6797 14.7614 12.402 15.4451C12.0935 16.1598 11.6925 16.657 11.1063 16.9678C10.5201 17.2786 9.81054 17.434 9.00841 17.434C8.20628 17.434 7.49671 17.2786 6.91054 16.9678C6.35522 16.657 5.9233 16.1598 5.61479 15.4761C5.33713 14.8235 5.18288 13.8602 5.18288 12.6171V1.42952H0.709473V12.8968C0.709473 13.7048 0.740324 14.4195 0.832877 15.0721C0.92543 15.7247 1.07969 16.3463 1.29564 16.9057C1.5733 17.5893 1.91266 18.242 2.37543 18.8013C2.8382 19.3607 3.39351 19.8269 4.01054 20.2309C4.65841 20.6038 5.36798 20.9145 6.20096 21.101C7.00309 21.2875 7.92862 21.4118 8.94671 21.4118C9.96479 21.4118 10.8903 21.3185 11.6925 21.101C12.5254 20.9145 13.2659 20.6038 13.9137 20.2309C14.5616 19.8579 15.1478 19.3607 15.5797 18.8013C16.0424 18.242 16.4127 17.6204 16.6595 16.9057C16.8754 16.3463 17.0297 15.7247 17.1222 15.0721C17.2148 14.4195 17.2456 13.6737 17.2456 12.8968V1.42952H12.8339V12.586Z" fill="#981D20"/>
<path d="M31.3755 10.6903C30.7893 10.2553 30.0797 9.9445 29.3084 9.69589C28.568 9.47836 27.7967 9.2919 27.0255 9.10544C26.5319 9.01221 26.0691 8.8879 25.668 8.79467C25.267 8.70144 24.9276 8.54606 24.6191 8.3596C24.3414 8.20422 24.1563 8.01776 24.0021 7.76914C23.8787 7.55161 23.7861 7.27192 23.7861 6.899C23.7861 6.27747 24.0021 5.8424 24.434 5.53163C24.9276 5.18979 25.6989 5.00333 26.6861 5.00333C27.4265 5.00333 28.2287 5.09656 29.0616 5.25194C29.8946 5.40732 30.7893 5.68701 31.7148 6.05993L32.4861 6.3707V2.29967L32.1467 2.14428C31.4063 1.83352 30.5116 1.55383 29.4627 1.36737C27.3957 0.963373 25.2361 0.963372 23.5702 1.42952C22.7063 1.67813 21.9659 2.08213 21.318 2.61043C20.6701 3.13873 20.1457 3.82242 19.7755 4.59933C19.4053 5.40732 19.2201 6.33962 19.2201 7.39622C19.2201 8.3596 19.3744 9.19867 19.7138 9.85127C20.0531 10.5039 20.485 11.0633 21.0712 11.4983C21.6265 11.9023 22.2436 12.2442 22.9531 12.4928C23.6319 12.7103 24.3414 12.8968 25.0819 13.0832C25.6063 13.2075 26.1308 13.3008 26.6244 13.4251C27.0872 13.5183 27.4882 13.6737 27.8584 13.8291C28.167 13.9845 28.4138 14.1709 28.5989 14.3885C28.7531 14.5749 28.8148 14.8546 28.8148 15.1964C28.8148 15.6315 28.7223 15.9734 28.5372 16.222C28.3521 16.5017 28.0744 16.7503 27.7659 16.9057C27.3957 17.0921 26.9946 17.2164 26.5319 17.3097C25.2053 17.5272 23.7861 17.434 22.4904 17.1853C21.6574 16.9989 20.7936 16.7192 19.9297 16.3463L19.1584 16.0044V20.0444L19.4361 20.1998C20.1148 20.5727 21.0095 20.8835 22.0276 21.101C23.0148 21.3185 24.0638 21.4118 25.1127 21.4118C26.285 21.4118 27.3957 21.2875 28.4138 21.0388C29.4319 20.7902 30.3265 20.4173 31.067 19.889C31.8074 19.3607 32.3936 18.677 32.7946 17.869C33.1957 17.061 33.4116 16.0977 33.4116 15.0411C33.4116 13.9845 33.2265 13.0832 32.8563 12.3996C32.4861 11.6848 31.9925 11.1254 31.3755 10.6903Z" fill="#981D20"/>
<path d="M52.6936 20.3862L45.1968 1.42952H41.3404L33.5659 21.0699H38.3787L40.1989 16.3463H46.4L48.2202 21.0699H53.0021M44.8883 12.3685H41.7414L42.0808 11.4673C42.451 10.5039 42.8829 9.35405 43.3149 8.04883C43.7776 9.35405 44.1787 10.5039 44.5489 11.4673L44.8883 12.3685Z" fill="#981D20"/>
<path d="M78.269 3.94672C77.436 3.0455 76.418 2.33074 75.2456 1.83351C74.0733 1.33629 72.7158 1.08768 71.2041 1.08768C69.7233 1.08768 68.3658 1.33629 67.1626 1.83351C65.9903 2.33074 64.9722 3.0455 64.1392 3.94672C63.3371 4.84794 62.6892 5.93562 62.2882 7.17869C61.8562 8.42175 61.6711 9.78912 61.6711 11.2497C61.6711 12.7103 61.8871 14.0777 62.2882 15.3208C62.7201 16.5638 63.3371 17.6515 64.1392 18.5527C64.9722 19.4539 65.9903 20.1687 67.1626 20.6659C68.335 21.1631 69.6924 21.4118 71.2041 21.4118C72.685 21.4118 74.0424 21.1631 75.2456 20.6659C76.418 20.1687 77.436 19.4539 78.269 18.5527C79.0711 17.6515 79.719 16.5638 80.1201 15.3208C80.552 14.0777 80.7371 12.7103 80.7371 11.2497C80.7371 9.78912 80.5211 8.42175 80.1201 7.17869C79.6882 5.93562 79.0711 4.84794 78.269 3.94672ZM69.1988 17.03C68.6126 16.7813 68.0882 16.4084 67.6563 15.9112C67.2243 15.414 66.885 14.7614 66.6073 14.0155C66.3605 13.2386 66.2063 12.3063 66.2063 11.2186C66.2063 10.162 66.3297 9.22974 66.6073 8.42175C66.8541 7.64484 67.1935 6.99223 67.6563 6.495C68.0882 5.99778 68.6126 5.62486 69.1988 5.37624C69.785 5.12763 70.4637 5.00333 71.2041 5.00333C71.9137 5.00333 72.5924 5.12763 73.2094 5.37624C73.7956 5.62486 74.3201 5.99778 74.752 6.495C75.1839 6.99223 75.5233 7.64484 75.8009 8.42175C76.0477 9.19866 76.202 10.131 76.202 11.2186C76.202 12.2752 76.0786 13.2075 75.8009 14.0155C75.5541 14.7924 75.2148 15.414 74.752 15.9112C74.3201 16.4084 73.7956 16.7813 73.2094 17.03C72.0063 17.5583 70.402 17.5583 69.1988 17.03Z" fill="#981D20"/>
<path d="M97.119 11.9645C96.8105 11.5916 96.4403 11.2497 96.0084 10.97C95.8541 10.8768 95.7307 10.7836 95.5764 10.7214C96.0701 10.3485 96.4403 9.88235 96.7179 9.38513C97.119 8.63929 97.335 7.80022 97.335 6.899C97.335 6.40177 97.2424 5.87347 97.0882 5.37625C96.9339 4.87902 96.6871 4.3818 96.3477 3.94672C96.0084 3.51165 95.5765 3.07658 95.0828 2.73474C94.5892 2.36182 93.9722 2.08213 93.2935 1.86459C92.3988 1.5849 91.2265 1.42952 89.8073 1.42952H82.835V21.0699H88.7584C89.2828 21.0699 89.7456 21.0699 90.1467 21.0388C90.5786 21.0388 90.9488 21.0078 91.2882 20.9767C91.6275 20.9456 91.936 20.9145 92.2445 20.8524C92.5222 20.7902 92.7999 20.7592 93.0467 20.697C94.003 20.4484 94.836 20.0755 95.4839 19.6404C96.1318 19.2053 96.6562 18.7081 97.0573 18.1798C97.4584 17.6515 97.736 17.061 97.8903 16.5017C98.0445 15.9423 98.1371 15.414 98.1371 14.8857C98.1371 14.2952 98.0445 13.7669 97.8903 13.2697C97.6743 12.7725 97.4275 12.3374 97.119 11.9645ZM92.4605 8.17314C92.3062 8.45283 92.0286 8.63929 91.6584 8.82575C91.3807 8.91898 90.8562 9.07436 89.8073 9.07436H87.3084V5.37625H89.5296C89.9924 5.37625 90.3935 5.37625 90.702 5.40732C91.0105 5.4384 91.2573 5.46948 91.4733 5.53163C91.936 5.68701 92.2754 5.87347 92.4296 6.15316C92.6147 6.43285 92.7073 6.77469 92.7073 7.14761C92.7073 7.55161 92.6456 7.86237 92.4605 8.17314ZM87.3084 12.99H89.9616C90.486 12.99 90.9488 13.0211 91.2882 13.0522C91.5967 13.0832 91.8743 13.1454 92.1211 13.2075C92.6147 13.3629 92.9541 13.5805 93.1701 13.8912C93.386 14.1709 93.4786 14.5128 93.4786 14.9168C93.4786 15.1654 93.4477 15.3829 93.386 15.6004C93.3243 15.7869 93.2318 15.9423 93.0775 16.1287C92.9233 16.2841 92.7382 16.4395 92.4605 16.5949C92.1828 16.7503 91.8435 16.8435 91.4116 16.9367C91.1339 16.9989 90.7945 17.061 90.4243 17.0921C90.0233 17.1232 89.5296 17.1543 88.9435 17.1543H87.3084V12.99Z" fill="#981D20"/>
<path d="M112.884 12.3996C112.514 11.6848 112.02 11.1254 111.403 10.6903C110.817 10.2553 110.107 9.9445 109.336 9.69589C108.596 9.47836 107.824 9.2919 107.053 9.10544C106.559 9.01221 106.097 8.8879 105.696 8.79467C105.295 8.70144 104.955 8.54606 104.647 8.3596C104.369 8.20422 104.184 8.01776 104.03 7.76914C103.906 7.55161 103.814 7.27192 103.814 6.899C103.814 6.27747 104.03 5.8424 104.462 5.53163C104.955 5.18979 105.726 5.00333 106.714 5.00333C107.454 5.00333 108.256 5.09656 109.089 5.25194C109.922 5.40732 110.817 5.68701 111.742 6.05993L112.514 6.3707V2.29967L112.174 2.14428C111.434 1.83352 110.539 1.55383 109.49 1.36737C107.423 0.963373 105.264 0.963372 103.598 1.42952C102.734 1.67813 101.993 2.08213 101.346 2.61043C100.698 3.13873 100.173 3.82242 99.8031 4.59933C99.4328 5.40732 99.2477 6.33962 99.2477 7.39622C99.2477 8.3596 99.402 9.19867 99.7414 9.85127C100.081 10.5039 100.513 11.0633 101.099 11.4983C101.654 11.9023 102.271 12.2442 102.981 12.4928C103.659 12.7103 104.369 12.8968 105.109 13.0832C105.634 13.2075 106.158 13.3008 106.652 13.4251C107.115 13.5183 107.516 13.6737 107.886 13.8291C108.195 13.9845 108.441 14.1709 108.626 14.3885C108.781 14.5749 108.842 14.8546 108.842 15.1964C108.842 15.6315 108.75 15.9734 108.565 16.222C108.38 16.5017 108.102 16.7503 107.793 16.9057C107.423 17.0921 107.022 17.2164 106.559 17.3097C105.233 17.5272 103.814 17.434 102.518 17.1853C101.685 16.9989 100.821 16.7192 99.9573 16.3463L99.186 16.0044V20.0444L99.4637 20.1998C100.142 20.5727 101.037 20.8835 102.055 21.101C103.042 21.3185 104.091 21.4118 105.14 21.4118C106.313 21.4118 107.423 21.2875 108.441 21.0388C109.459 20.7902 110.354 20.4173 111.095 19.889C111.835 19.3607 112.421 18.677 112.822 17.869C113.223 17.061 113.439 16.0977 113.439 15.0411C113.439 13.9845 113.254 13.1143 112.884 12.3996Z" fill="#981D20"/>
<path d="M113.408 3.29412C113.408 3.16981 113.439 3.0455 113.47 2.95227C113.501 2.85905 113.563 2.76582 113.655 2.67259C113.717 2.61043 113.81 2.54828 113.933 2.48613C114.025 2.45505 114.149 2.42397 114.272 2.42397C114.396 2.42397 114.488 2.45505 114.612 2.48613C114.704 2.5172 114.797 2.57936 114.889 2.67259C114.951 2.73474 115.013 2.82797 115.074 2.95227C115.105 3.0455 115.136 3.16981 115.136 3.29412C115.136 3.41842 115.105 3.54273 115.074 3.63596C115.044 3.72919 114.982 3.82242 114.889 3.91565C114.828 3.9778 114.735 4.03996 114.612 4.10211C114.519 4.13319 114.396 4.16426 114.272 4.16426C114.149 4.16426 114.056 4.13319 113.933 4.10211C113.84 4.07103 113.748 4.00888 113.655 3.91565C113.594 3.8535 113.532 3.76027 113.47 3.63596C113.408 3.51165 113.408 3.41842 113.408 3.29412ZM113.624 3.29412C113.624 3.38735 113.624 3.48058 113.655 3.54273C113.686 3.63596 113.717 3.69811 113.779 3.76027C113.84 3.82242 113.902 3.8535 113.995 3.91565C114.087 3.94673 114.149 3.9778 114.241 3.9778C114.334 3.9778 114.427 3.94673 114.488 3.91565C114.581 3.88457 114.642 3.82242 114.704 3.76027C114.766 3.69811 114.797 3.63596 114.828 3.54273C114.858 3.4495 114.858 3.38735 114.858 3.29412C114.858 3.20089 114.858 3.10766 114.828 3.0455C114.797 2.95227 114.766 2.89012 114.704 2.82797C114.642 2.76582 114.581 2.73474 114.488 2.70366C114.396 2.67259 114.334 2.64151 114.241 2.64151C114.149 2.64151 114.056 2.67259 113.995 2.70366C113.902 2.73474 113.84 2.79689 113.779 2.82797C113.717 2.89012 113.686 2.95227 113.655 3.0455C113.624 3.10766 113.624 3.20089 113.624 3.29412ZM114.396 3.35627L114.642 3.69811H114.396L114.18 3.38735H114.149V3.69811H113.902V2.85905H114.241C114.303 2.85905 114.334 2.85905 114.396 2.85905C114.427 2.85905 114.488 2.89012 114.519 2.89012C114.55 2.9212 114.581 2.95228 114.612 2.98335C114.642 3.01443 114.642 3.0455 114.642 3.10766C114.642 3.16981 114.612 3.23196 114.581 3.26304C114.519 3.32519 114.457 3.32519 114.396 3.35627ZM114.149 3.01443V3.23196H114.211C114.272 3.23196 114.303 3.23196 114.334 3.20089C114.365 3.16981 114.365 3.16981 114.365 3.10766C114.365 3.07658 114.365 3.0455 114.334 3.0455C114.303 3.01443 114.272 3.01443 114.241 3.01443H114.149Z" fill="#981D20"/>
</svg>
