<svg width="124" height="30" viewBox="0 0 124 30" fill="none" xmlns="http://www.w3.org/2000/svg">
<g id="Image (USAJOBS)">
<path id="Vector" d="M58.8338 21.8091C58.8338 22.1753 58.8338 22.5748 58.8009 22.9744C58.7679 23.374 58.7019 23.7735 58.57 24.1064C58.4711 24.4394 58.0754 25.6381 55.7998 25.2718H55.569V29.2673L55.7338 29.3007C56.3275 29.4338 56.8881 29.5004 57.4157 29.5004C58.7349 29.5004 59.7902 29.3007 60.6147 28.9011C61.4392 28.5016 62.0657 27.9355 62.5275 27.2696C62.9562 26.6037 63.286 25.8045 63.4179 24.9389C63.5828 24.0732 63.6488 23.8401 63.6488 22.9411V1.56503H58.8009V21.8091H58.8338Z" fill="#67787C"/>
<path id="Vector_2" d="M13.719 13.485C13.719 14.8169 13.5542 15.8158 13.2573 16.5483C12.9275 17.3141 12.4989 17.8468 11.8723 18.1798C11.2456 18.5128 10.4871 18.6793 9.62968 18.6793C8.77223 18.6793 8.01372 18.5128 7.38713 18.1798C6.79351 17.8468 6.3318 17.3141 6.00202 16.5815C5.70521 15.8823 5.54032 14.8502 5.54032 13.5183V1.53174H0.758401V13.818C0.758401 14.6837 0.79138 15.4495 0.890316 16.1487C0.989252 16.8479 1.15415 17.5139 1.38499 18.1132C1.6818 18.8456 2.04457 19.545 2.53925 20.1442C3.03394 20.7436 3.62754 21.2431 4.28713 21.6759C4.97968 22.0754 5.73818 22.4083 6.62861 22.6082C7.48606 22.808 8.47542 22.9411 9.56372 22.9411C10.652 22.9411 11.6414 22.8412 12.4989 22.6082C13.3892 22.4083 14.1808 22.0754 14.8733 21.6759C15.5658 21.2763 16.1925 20.7436 16.6542 20.1442C17.1488 19.545 17.5446 18.879 17.8084 18.1132C18.0392 17.5139 18.2042 16.8479 18.303 16.1487C18.402 15.4495 18.4349 14.6504 18.4349 13.818V1.53174H13.719V13.485Z" fill="#67787C"/>
<path id="Vector_3" d="M33.5393 11.4539C32.9127 10.9879 32.1542 10.6549 31.3297 10.3885C30.5382 10.1554 29.7137 9.95565 28.8893 9.75587C28.3617 9.65598 27.867 9.5228 27.4382 9.42291C27.0095 9.32302 26.6467 9.15654 26.317 8.95676C26.0201 8.79029 25.8223 8.59051 25.6574 8.32413C25.5255 8.09107 25.4265 7.7914 25.4265 7.39185C25.4265 6.72593 25.6574 6.25979 26.1191 5.92682C26.6467 5.56057 27.4712 5.36079 28.5265 5.36079C29.318 5.36079 30.1755 5.46068 31.0658 5.62716C31.9563 5.79363 32.9127 6.0933 33.902 6.49285L34.7265 6.82582V2.46404L34.3637 2.29755C33.5723 1.9646 32.6158 1.66493 31.4946 1.46515C29.2851 1.0323 26.9765 1.0323 25.1957 1.53174C24.2723 1.79811 23.4808 2.23096 22.7882 2.79699C22.0956 3.36302 21.5351 4.09554 21.1393 4.92794C20.7436 5.79363 20.5456 6.79252 20.5456 7.92458C20.5456 8.95676 20.7106 9.85576 21.0734 10.555C21.4361 11.2542 21.8978 11.8536 22.5244 12.3196C23.118 12.7525 23.7776 13.1188 24.5361 13.3852C25.2617 13.6182 26.0201 13.818 26.8117 14.0177C27.3722 14.1509 27.9329 14.2509 28.4606 14.384C28.9553 14.4839 29.3839 14.6504 29.7797 14.8169C30.1096 14.9834 30.3734 15.1831 30.5712 15.4162C30.7361 15.616 30.802 15.9156 30.802 16.2818C30.802 16.748 30.7031 17.1143 30.5053 17.3807C30.3074 17.6804 30.0106 17.9467 29.6808 18.1132C29.2851 18.3129 28.8563 18.4461 28.3617 18.5461C26.9436 18.7791 25.4265 18.6793 24.0415 18.4128C23.151 18.2131 22.2276 17.9134 21.3042 17.5139L20.4797 17.1476V21.4761L20.7765 21.6426C21.502 22.0421 22.4584 22.3751 23.5467 22.6081C24.602 22.8412 25.7234 22.9411 26.8446 22.9411C28.0978 22.9411 29.2851 22.808 30.3734 22.5415C31.4617 22.2752 32.418 21.8756 33.2095 21.3096C34.001 20.7436 34.6276 20.011 35.0563 19.1453C35.4851 18.2796 35.7158 17.2475 35.7158 16.1155C35.7158 14.9834 35.518 14.0177 35.1223 13.2853C34.7265 12.5194 34.1989 11.9201 33.5393 11.4539Z" fill="#67787C"/>
<path id="Vector_4" d="M56.3276 21.8423L48.3138 1.53174H44.1915L35.8808 22.5748H41.0255L42.9712 17.5139H49.6L51.5457 22.5748H56.6574M47.984 13.252H44.6201L44.9829 12.2864C45.3787 11.2542 45.8403 10.0222 46.3021 8.6238C46.7967 10.0222 47.2255 11.2542 47.6212 12.2864L47.984 13.252Z" fill="#67787C"/>
<path id="Vector_5" d="M83.6669 4.22872C82.7764 3.26313 81.6882 2.49733 80.435 1.96458C79.1818 1.43185 77.7307 1.16549 76.1147 1.16549C74.5318 1.16549 73.0807 1.43185 71.7945 1.96458C70.5414 2.49733 69.453 3.26313 68.5626 4.22872C67.7052 5.1943 67.0126 6.35967 66.5839 7.69152C66.1222 9.02335 65.9243 10.4884 65.9243 12.0533C65.9243 13.6182 66.1552 15.0832 66.5839 16.4151C67.0456 17.7469 67.7052 18.9123 68.5626 19.8779C69.453 20.8434 70.5414 21.6093 71.7945 22.142C73.0478 22.6747 74.4988 22.9411 76.1147 22.9411C77.6978 22.9411 79.1488 22.6747 80.435 22.142C81.6882 21.6093 82.7764 20.8434 83.6669 19.8779C84.5243 18.9123 85.2169 17.7469 85.6456 16.4151C86.1073 15.0832 86.3052 13.6182 86.3052 12.0533C86.3052 10.4884 86.0743 9.02335 85.6456 7.69152C85.1839 6.35967 84.5243 5.1943 83.6669 4.22872ZM73.9711 18.2464C73.3445 17.9799 72.7839 17.5804 72.3223 17.0477C71.8605 16.515 71.4978 15.8158 71.2009 15.0166C70.9371 14.1842 70.7723 13.1853 70.7723 12.02C70.7723 10.8879 70.9042 9.88905 71.2009 9.02335C71.4647 8.19096 71.8275 7.49174 72.3223 6.959C72.7839 6.42627 73.3445 6.02671 73.9711 5.76033C74.5978 5.49397 75.3233 5.36079 76.1147 5.36079C76.8733 5.36079 77.5988 5.49397 78.2583 5.76033C78.885 6.02671 79.4456 6.42627 79.9073 6.959C80.369 7.49174 80.7318 8.19096 81.0286 9.02335C81.2924 9.85575 81.4573 10.8547 81.4573 12.02C81.4573 13.152 81.3254 14.1509 81.0286 15.0166C80.7647 15.849 80.402 16.515 79.9073 17.0477C79.4456 17.5804 78.885 17.9799 78.2583 18.2464C76.9723 18.8124 75.2573 18.8124 73.9711 18.2464Z" fill="#67787C"/>
<path id="Vector_6" d="M103.817 12.8191C103.487 12.4196 103.091 12.0533 102.63 11.7536C102.465 11.6537 102.333 11.5539 102.168 11.4872C102.696 11.0877 103.091 10.5883 103.388 10.0555C103.817 9.25643 104.048 8.35743 104.048 7.39185C104.048 6.85911 103.949 6.29308 103.784 5.76034C103.619 5.2276 103.355 4.69487 102.992 4.22872C102.63 3.76258 102.168 3.29643 101.64 2.93018C101.113 2.53063 100.453 2.23096 99.7275 1.99788C98.7711 1.69822 97.518 1.53174 96.0009 1.53174H88.5478V22.5748H94.8797C95.4402 22.5748 95.9349 22.5748 96.3637 22.5415C96.8254 22.5415 97.2211 22.5083 97.5839 22.475C97.9466 22.4417 98.2764 22.4083 98.6062 22.3418C98.903 22.2752 99.1999 22.2419 99.4637 22.1753C100.486 21.9089 101.376 21.5094 102.069 21.0432C102.762 20.5771 103.322 20.0443 103.751 19.4783C104.18 18.9123 104.476 18.2796 104.641 17.6804C104.806 17.081 104.905 16.515 104.905 15.949C104.905 15.3163 104.806 14.7503 104.641 14.2175C104.41 13.6848 104.147 13.2187 103.817 12.8191ZM98.8371 8.75699C98.6721 9.05665 98.3754 9.25643 97.9797 9.45621C97.6828 9.5561 97.1221 9.72257 96.0009 9.72257H93.3297V5.76034H95.7041C96.1988 5.76034 96.6275 5.76035 96.9573 5.79363C97.2871 5.82693 97.5509 5.86023 97.7818 5.92682C98.2764 6.0933 98.6392 6.29308 98.8041 6.59274C99.0019 6.89241 99.1009 7.25866 99.1009 7.65821C99.1009 8.09107 99.035 8.42402 98.8371 8.75699ZM93.3297 13.9179H96.1658C96.7264 13.9179 97.2211 13.9512 97.5839 13.9845C97.9137 14.0177 98.2105 14.0844 98.4743 14.1509C99.0019 14.3174 99.3647 14.5505 99.5956 14.8834C99.8264 15.1831 99.9254 15.5494 99.9254 15.9823C99.9254 16.2486 99.8924 16.4817 99.8264 16.7147C99.7605 16.9145 99.6616 17.081 99.4966 17.2807C99.3318 17.4472 99.1339 17.6137 98.8371 17.7802C98.5402 17.9467 98.1775 18.0466 97.7158 18.1464C97.419 18.2131 97.0562 18.2796 96.6605 18.3129C96.2318 18.3463 95.704 18.3796 95.0775 18.3796H93.3297V13.9179Z" fill="#67787C"/>
<path id="Vector_7" d="M120.669 13.2853C120.274 12.5194 119.746 11.9201 119.086 11.4539C118.46 10.9879 117.701 10.6549 116.876 10.3885C116.085 10.1554 115.26 9.95565 114.436 9.75587C113.908 9.65598 113.414 9.5228 112.985 9.42291C112.557 9.32302 112.193 9.15654 111.864 8.95676C111.567 8.79029 111.369 8.59051 111.204 8.32413C111.072 8.09107 110.974 7.7914 110.974 7.39185C110.974 6.72593 111.204 6.25979 111.666 5.92682C112.193 5.56057 113.017 5.36079 114.074 5.36079C114.865 5.36079 115.722 5.46068 116.612 5.62716C117.503 5.79363 118.46 6.0933 119.448 6.49285L120.274 6.82582V2.46404L119.91 2.29755C119.119 1.9646 118.162 1.66493 117.041 1.46515C114.831 1.0323 112.524 1.0323 110.743 1.53174C109.819 1.79811 109.027 2.23096 108.335 2.79699C107.643 3.36302 107.081 4.09554 106.686 4.92794C106.29 5.79363 106.092 6.79252 106.092 7.92458C106.092 8.95676 106.257 9.85576 106.62 10.555C106.983 11.2542 107.445 11.8536 108.071 12.3196C108.665 12.7525 109.324 13.1188 110.083 13.3852C110.808 13.6182 111.567 13.818 112.358 14.0177C112.919 14.1509 113.479 14.2509 114.007 14.384C114.502 14.4839 114.931 14.6504 115.326 14.8169C115.657 14.9834 115.92 15.1831 116.117 15.4162C116.283 15.616 116.348 15.9156 116.348 16.2818C116.348 16.748 116.25 17.1143 116.052 17.3807C115.854 17.6804 115.557 17.9467 115.227 18.1132C114.831 18.3129 114.403 18.4461 113.908 18.5461C112.49 18.7791 110.974 18.6793 109.588 18.4128C108.698 18.2131 107.774 17.9134 106.851 17.5139L106.026 17.1476V21.4761L106.323 21.6426C107.048 22.0421 108.005 22.3751 109.093 22.6081C110.148 22.8412 111.27 22.9411 112.391 22.9411C113.645 22.9411 114.831 22.808 115.92 22.5415C117.008 22.2752 117.965 21.8756 118.757 21.3096C119.548 20.7436 120.174 20.011 120.603 19.1453C121.031 18.2796 121.262 17.2475 121.262 16.1155C121.262 14.9834 121.065 14.051 120.669 13.2853Z" fill="#67787C"/>
<path id="Vector_8" d="M121.229 3.52951C121.229 3.39632 121.262 3.26313 121.296 3.16325C121.329 3.06337 121.395 2.96348 121.493 2.86359C121.56 2.79699 121.659 2.7304 121.79 2.66381C121.889 2.63051 122.021 2.59721 122.153 2.59721C122.285 2.59721 122.384 2.63051 122.516 2.66381C122.615 2.6971 122.714 2.7637 122.812 2.86359C122.879 2.93018 122.945 3.03007 123.01 3.16325C123.043 3.26313 123.076 3.39632 123.076 3.52951C123.076 3.66269 123.043 3.79588 123.01 3.89576C122.978 3.99565 122.912 4.09554 122.812 4.19543C122.747 4.26202 122.648 4.32862 122.516 4.39521C122.417 4.42851 122.285 4.4618 122.153 4.4618C122.021 4.4618 121.922 4.42851 121.79 4.39521C121.691 4.36191 121.593 4.29532 121.493 4.19543C121.428 4.12884 121.362 4.02895 121.296 3.89576C121.229 3.76258 121.229 3.66269 121.229 3.52951ZM121.46 3.52951C121.46 3.6294 121.46 3.72929 121.493 3.79588C121.526 3.89576 121.56 3.96235 121.626 4.02895C121.691 4.09554 121.757 4.12884 121.857 4.19543C121.955 4.22873 122.021 4.26202 122.12 4.26202C122.219 4.26202 122.319 4.22873 122.384 4.19543C122.483 4.16213 122.548 4.09554 122.615 4.02895C122.681 3.96235 122.714 3.89576 122.747 3.79588C122.779 3.69599 122.779 3.6294 122.779 3.52951C122.779 3.42962 122.779 3.32973 122.747 3.26313C122.714 3.16325 122.681 3.09666 122.615 3.03007C122.548 2.96348 122.483 2.93018 122.384 2.89688C122.285 2.86359 122.219 2.83029 122.12 2.83029C122.021 2.83029 121.922 2.86359 121.857 2.89688C121.757 2.93018 121.691 2.99677 121.626 3.03007C121.56 3.09666 121.526 3.16325 121.493 3.26313C121.46 3.32973 121.46 3.42962 121.46 3.52951ZM122.285 3.5961L122.548 3.96235H122.285L122.054 3.6294H122.021V3.96235H121.757V3.06337H122.12C122.186 3.06337 122.219 3.06337 122.285 3.06337C122.319 3.06337 122.384 3.09666 122.417 3.09666C122.45 3.12996 122.483 3.16326 122.516 3.19655C122.548 3.22985 122.548 3.26313 122.548 3.32973C122.548 3.39632 122.516 3.46291 122.483 3.49621C122.417 3.5628 122.351 3.5628 122.285 3.5961ZM122.021 3.22985V3.46291H122.088C122.153 3.46291 122.186 3.46291 122.219 3.42962C122.252 3.39632 122.252 3.39632 122.252 3.32973C122.252 3.29643 122.252 3.26313 122.219 3.26313C122.186 3.22985 122.153 3.22985 122.12 3.22985H122.021Z" fill="#67787C"/>
</g>
</svg>
